<svg width="197" height="57" viewBox="0 0 197 57" fill="none" xmlns="http://www.w3.org/2000/svg">
<path fill-rule="evenodd" clip-rule="evenodd" d="M93.3437 45.3562H89.6079V30.6122C89.6079 27.6462 87.6739 25.4324 84.6854 25.4324C81.6963 25.4324 79.7629 27.6462 79.7629 30.6122V45.3562H76.0271V30.6122C76.0271 27.6462 74.0935 25.4324 71.1046 25.4324C68.1159 25.4324 66.1821 27.6462 66.1821 30.6122V45.3562H62.4463V30.7451C62.4463 25.7861 66.0065 21.9788 71.1046 21.9788C74.1814 21.9788 76.5547 23.4394 77.8729 25.7415C79.2351 23.4394 81.6086 21.9788 84.6854 21.9788C89.8275 21.9788 93.3437 25.7861 93.3437 30.7451V45.3562Z" fill="#94C93D"/>
<path fill-rule="evenodd" clip-rule="evenodd" d="M116.507 31.5868C115.584 27.8672 112.507 25.3878 109.211 25.3878C106.091 25.3878 102.794 27.6904 101.827 31.5868H116.507ZM120.111 38.2723C118.528 43.1425 114.661 45.8876 109.431 45.8876C102.926 45.8876 97.8276 40.6633 97.8276 33.9778C97.8276 27.3802 102.926 21.9785 109.211 21.9785C115.056 21.9785 120.682 26.8485 120.639 34.9515H101.607C102.091 39.6892 105.695 42.4784 109.431 42.4784C112.639 42.4784 114.924 40.9287 116.155 38.2723H120.111Z" fill="#94C93D"/>
<path fill-rule="evenodd" clip-rule="evenodd" d="M134.879 25.5649C130.616 25.5649 127.276 29.3723 127.276 34.0217C127.276 38.582 130.616 42.3455 134.879 42.3455C139.054 42.3455 142.57 38.582 142.57 34.0217C142.57 29.3723 139.054 25.5649 134.879 25.5649ZM146.306 45.3564H142.702V41.6814C141.12 44.028 138.219 45.9321 134.879 45.9321C128.375 45.9321 123.54 40.5743 123.54 33.9776C123.54 27.3799 128.375 21.9783 134.879 21.9783C138.219 21.9783 141.12 23.8824 142.702 26.1851V22.5539H146.306V45.3564Z" fill="#94C93D"/>
<path fill-rule="evenodd" clip-rule="evenodd" d="M156.329 45.3565H152.593V12.4153H156.329V45.3565Z" fill="#94C93D"/>
<path fill-rule="evenodd" clip-rule="evenodd" d="M168.712 45.3566H164.977V22.5544H168.712V45.3566Z" fill="#94C93D"/>
<path fill-rule="evenodd" clip-rule="evenodd" d="M184.841 25.5649C180.579 25.5649 177.238 29.3723 177.238 34.0217C177.238 38.582 180.579 42.3455 184.841 42.3455C189.017 42.3455 192.533 38.582 192.533 34.0217C192.533 29.3723 189.017 25.5649 184.841 25.5649ZM196.269 45.3564H192.665V41.6814C191.083 44.028 188.181 45.9321 184.841 45.9321C178.337 45.9321 173.502 40.5743 173.502 33.9776C173.502 27.3799 178.337 21.9783 184.841 21.9783C188.181 21.9783 191.083 23.8824 192.665 26.1851V22.5539H196.269V45.3564Z" fill="#94C93D"/>
<path fill-rule="evenodd" clip-rule="evenodd" d="M164.977 15.0276H168.712V18.7911H164.977V15.0276Z" fill="#8CC33E"/>
<path fill-rule="evenodd" clip-rule="evenodd" d="M89.6079 35.6726V31.2238C89.6079 28.3197 87.6739 26.1521 84.6854 26.1521C81.6963 26.1521 79.7629 28.3197 79.7629 31.2238V34.8843C78.4969 34.768 77.2515 34.647 76.0271 34.5222V31.2238C76.0271 28.3197 74.0935 26.1521 71.1046 26.1521C68.1159 26.1521 66.1821 28.3197 66.1821 31.2238V33.3678C64.9027 33.196 63.6589 33.0185 62.4463 32.8366V31.3539C62.4463 26.4984 66.0065 22.7705 71.1046 22.7705C74.1814 22.7705 76.5547 24.2007 77.8729 26.4547C79.2351 24.2007 81.6086 22.7705 84.6854 22.7705C89.8275 22.7705 93.3437 26.4984 93.3437 31.3539V35.9162C92.0837 35.8391 90.8391 35.7575 89.6079 35.6726Z" fill="#BDD530"/>
<path fill-rule="evenodd" clip-rule="evenodd" d="M116.507 32.178C115.584 28.5361 112.507 26.1084 109.211 26.1084C106.091 26.1084 102.794 28.3629 101.827 32.178H116.507ZM101.743 36.3628C100.463 36.3046 99.1959 36.2421 97.9398 36.1764C97.8664 35.6359 97.8276 35.0831 97.8276 34.5191C97.8276 28.0592 102.926 22.7703 109.211 22.7703C115.056 22.7703 120.682 27.5386 120.639 35.4725H101.607C101.639 35.7775 101.685 36.0744 101.743 36.3628Z" fill="#BDD530"/>
<path fill-rule="evenodd" clip-rule="evenodd" d="M134.879 26.2818C130.616 26.2818 127.276 30.0097 127.276 34.5621C127.276 35.3976 127.393 36.2058 127.611 36.9678C126.326 36.9642 125.047 36.9568 123.775 36.9458C123.621 36.1626 123.54 35.3511 123.54 34.5189C123.54 28.0589 128.375 22.77 134.879 22.77C138.219 22.77 141.12 24.6344 142.702 26.889V23.3336H146.306V36.7455C144.966 36.7815 143.615 36.813 142.256 36.8405C142.46 36.1161 142.57 35.3513 142.57 34.5621C142.57 30.0097 139.054 26.2818 134.879 26.2818Z" fill="#BDD530"/>
<path fill-rule="evenodd" clip-rule="evenodd" d="M152.593 36.544V13.4065H156.329V36.3908C155.093 36.4454 153.849 36.4968 152.593 36.544Z" fill="#BDD530"/>
<path fill-rule="evenodd" clip-rule="evenodd" d="M164.977 35.9398V23.334H168.712V35.6997C167.481 35.7836 166.236 35.8637 164.977 35.9398Z" fill="#BDD530"/>
<path fill-rule="evenodd" clip-rule="evenodd" d="M184.841 26.2818C180.579 26.2818 177.238 30.0097 177.238 34.5621C177.238 34.7214 177.243 34.8799 177.251 35.037C176.028 35.1441 174.788 35.2475 173.53 35.3464C173.512 35.073 173.502 34.7971 173.502 34.5189C173.502 28.0589 178.337 22.77 184.841 22.77C188.181 22.77 191.083 24.6344 192.665 26.889V23.3336H196.269V32.8365C195.03 33.0224 193.76 33.2034 192.452 33.3788C191.907 29.3812 188.648 26.2818 184.841 26.2818Z" fill="#BDD530"/>
<path fill-rule="evenodd" clip-rule="evenodd" d="M164.977 15.9641H168.712V19.649H164.977V15.9641Z" fill="#BDD530"/>
<path fill-rule="evenodd" clip-rule="evenodd" d="M30.2997 0.863091C44.4909 2.06492 55.6397 14.1337 55.6397 28.8468C55.6397 43.6365 44.3754 55.7557 30.0789 56.85V56.8352C29.4001 56.8349 28.85 56.2766 28.85 55.5874C28.85 54.8981 29.4001 54.3398 30.0789 54.3396V54.3393C36.1978 53.8244 41.696 51.0919 45.7914 46.9356C50.3524 42.3065 53.1739 35.9111 53.1739 28.8468C53.1739 21.7824 50.3524 15.3869 45.7914 10.7578C41.696 6.60162 36.1978 3.86913 30.0792 3.35435V3.33839C29.4003 3.33839 28.85 2.77985 28.85 2.09087C28.85 1.40164 29.4003 0.843018 30.0792 0.843018C30.1545 0.843018 30.2281 0.849737 30.2997 0.863091ZM25.8581 0.843018C26.537 0.843018 27.0873 1.40164 27.0873 2.09087C27.0873 2.77985 26.537 3.33839 25.8581 3.33839V3.35435C19.7395 3.86913 14.241 6.60136 10.1457 10.7578C5.58464 15.3869 2.76332 21.7824 2.76332 28.8468C2.76332 35.9111 5.58464 42.3065 10.1457 46.9356C14.2408 51.0919 19.7395 53.8244 25.8579 54.3393V54.3396H25.8581C26.537 54.3396 27.0873 54.8981 27.0873 55.5874C27.0873 56.2766 26.537 56.8352 25.8581 56.8352H25.8579V56.85C11.5619 55.7557 0.297363 43.6365 0.297363 28.8468C0.297363 14.1334 11.4467 2.06467 25.6376 0.863091C25.7091 0.849737 25.7828 0.843018 25.8581 0.843018Z" fill="#FFC40E"/>
<path fill-rule="evenodd" clip-rule="evenodd" d="M30.2998 0.863091C40.3027 1.71014 48.7934 7.95681 52.9343 16.7226C52.0886 16.8533 51.2314 16.9779 50.3628 17.0957C49.1641 14.747 47.6172 12.6108 45.7915 10.7578C41.6961 6.60162 36.1979 3.86913 30.0793 3.35435V3.33839C29.4004 3.33839 28.8501 2.77985 28.8501 2.09087C28.8501 1.40164 29.4004 0.843018 30.0793 0.843018C30.1546 0.843018 30.2282 0.849737 30.2998 0.863091ZM5.57465 17.0957C4.70605 16.9779 3.84861 16.8536 3.00293 16.7226C7.14379 7.95656 15.6348 1.70989 25.6377 0.863091C25.7093 0.849737 25.7829 0.843018 25.8582 0.843018C26.5371 0.843018 27.0874 1.40164 27.0874 2.09087C27.0874 2.77985 26.5371 3.33839 25.8582 3.33839V3.35435C19.7396 3.86913 14.2411 6.60136 10.1458 10.7578C8.32 12.6108 6.77362 14.747 5.57465 17.0957Z" fill="#FFD741"/>
<path fill-rule="evenodd" clip-rule="evenodd" d="M9.99854 17.6528L10.0222 17.5319C10.2782 17.6029 10.5364 17.6779 10.7968 17.7561C10.5298 17.7224 10.2636 17.6881 9.99854 17.6528ZM45.1423 17.7558C45.4029 17.6776 45.6618 17.6023 45.9185 17.5312L46.013 17.6433C45.724 17.682 45.4334 17.7191 45.1423 17.7558Z" fill="#8CC33E"/>
<path fill-rule="evenodd" clip-rule="evenodd" d="M46.219 17.4941C46.3525 17.4941 46.4811 17.516 46.6014 17.5557C46.27 17.5919 45.937 17.6274 45.603 17.6617C45.7841 17.5551 45.9945 17.4941 46.219 17.4941Z" fill="#8CC33E"/>
<path fill-rule="evenodd" clip-rule="evenodd" d="M9.72244 17.4941C9.94712 17.4941 10.1578 17.5554 10.3389 17.6622C10.0041 17.6277 9.67055 17.5925 9.33887 17.556C9.45969 17.5158 9.58846 17.4941 9.72244 17.4941Z" fill="#8CC33E"/>
<path fill-rule="evenodd" clip-rule="evenodd" d="M52.9343 40.9705C48.7634 49.8018 40.1781 56.0768 30.079 56.8499V56.8351C29.4002 56.8348 28.8501 56.2765 28.8501 55.5873C28.8501 54.898 29.4002 54.3397 30.079 54.3394V54.3392C36.1979 53.8242 41.6961 51.0918 45.7915 46.9355C47.6172 45.0825 49.1639 42.9461 50.3628 40.5974C51.2313 40.7153 52.0886 40.8398 52.9343 40.9705ZM3.00293 40.9705C3.84836 40.8398 4.7058 40.7153 5.57441 40.5974C6.77313 42.9461 8.32 45.0825 10.1458 46.9355C14.2409 51.0918 19.7396 53.8242 25.858 54.3392V54.3394H25.8582C26.5371 54.3394 27.0874 54.898 27.0874 55.5873C27.0874 56.2765 26.5371 56.8351 25.8582 56.8351H25.858V56.8499C15.7591 56.0768 7.17408 49.8018 3.00293 40.9705Z" fill="#FBAA1A"/>
<path fill-rule="evenodd" clip-rule="evenodd" d="M27.9686 6.96411C29.9189 6.96411 31.6851 7.76648 32.9633 9.06406C34.2416 10.3614 35.0324 12.1537 35.0324 14.1333C35.0324 16.1128 34.2416 17.9053 32.9633 19.2026C31.6851 20.5 29.9189 21.3026 27.9686 21.3026C26.0178 21.3026 24.2518 20.5 22.9736 19.2026C21.6954 17.9053 20.9048 16.1128 20.9048 14.1333C20.9048 12.1537 21.6954 10.3614 22.9736 9.06406C24.2518 7.76648 26.0178 6.96411 27.9686 6.96411ZM31.2197 10.8335C30.3879 9.98922 29.2381 9.46688 27.9686 9.46688C26.6988 9.46688 25.549 9.98922 24.7173 10.8335C23.8854 11.6779 23.3705 12.8448 23.3705 14.1333C23.3705 15.4218 23.8854 16.5887 24.7173 17.4332C25.549 18.2775 26.6988 18.7998 27.9686 18.7998C29.2381 18.7998 30.3879 18.2775 31.2197 17.4332C32.0518 16.5887 32.5664 15.4218 32.5664 14.1333C32.5664 12.8448 32.0518 11.6779 31.2197 10.8335Z" fill="#94C93D"/>
<path fill-rule="evenodd" clip-rule="evenodd" d="M9.72225 17.4939C9.82569 17.4939 9.92607 17.507 10.022 17.5315L10.0295 17.5332H10.0298C16.0428 18.8543 23.2809 21.7273 27.9674 26.0721C32.6575 21.7247 39.9026 18.851 45.9183 17.531L45.9187 17.5315C46.0149 17.507 46.1155 17.4939 46.2192 17.4939C46.8779 17.4939 47.4151 18.0191 47.447 18.6796C47.7649 21.0597 47.9317 23.6891 47.8789 26.3618C47.885 26.4109 47.8878 26.4614 47.8878 26.5121C47.8878 27.2013 47.3375 27.7599 46.6586 27.7599C45.9794 27.7599 45.4291 27.2013 45.4291 26.5121C45.4291 26.4899 45.4299 26.4678 45.431 26.4457H45.42C45.4674 24.3262 45.3672 22.2282 45.1592 20.2688C40.2932 21.4861 34.8171 23.7098 30.8228 26.8916C30.1341 27.4401 29.4931 28.0146 28.9126 28.6147C28.6883 28.8577 28.3693 29.0096 28.0153 29.0096C27.6653 29.0096 27.35 28.8615 27.126 28.6234H27.1175C26.6643 28.2242 26.2555 27.8665 26.2555 27.8665L26.2552 27.8663C25.8925 27.533 25.5116 27.208 25.1144 26.8916C21.1199 23.7101 15.644 21.4861 10.7776 20.2688C10.5693 22.2282 10.4694 24.3262 10.5165 26.4457H10.5059C10.5071 26.4678 10.5078 26.4899 10.5078 26.5121C10.5078 27.2013 9.95752 27.7599 9.27859 27.7599C8.5995 27.7599 8.04917 27.2013 8.04917 26.5121C8.04917 26.4605 8.05248 26.409 8.05827 26.359C8.00556 23.656 8.17628 20.9976 8.50118 18.5962C8.57227 17.9756 9.09165 17.4939 9.72225 17.4939Z" fill="#94C93D"/>
<path fill-rule="evenodd" clip-rule="evenodd" d="M9.58771 29.4822C10.2713 29.4822 10.8254 30.0407 10.8254 30.7299H10.8257C11.0652 32.6351 11.448 34.4931 12.0034 36.2161C12.7394 38.4975 13.7737 40.5119 15.1753 42.0214C16.4845 43.4316 18.1521 44.4184 20.246 44.7755C21.8646 45.0515 23.7559 44.9672 25.9547 44.4377C25.8857 44.3315 25.8184 44.2258 25.7519 44.1204L23.7252 41.189L18.2866 40.2405C17.6164 40.1246 17.1658 39.4786 17.28 38.7984C17.3942 38.1182 18.0306 37.6609 18.7009 37.7768L21.7317 38.3056L19.5352 35.1288L14.107 34.182C13.4365 34.0658 12.9862 33.4201 13.1004 32.7398C13.2147 32.0597 13.8511 31.6021 14.5213 31.7182L17.542 32.2454L14.5452 27.9103C14.1539 27.3463 14.2876 26.5671 14.8436 26.1704C15.3996 25.7735 16.1671 25.9092 16.5584 26.4735L19.5801 30.8445L20.1339 27.7349C20.2538 27.0572 20.8921 26.6065 21.5597 26.728C22.2271 26.8492 22.6714 27.4973 22.5518 28.1746L21.5646 33.7148L23.0936 35.9262C23.1 34.0603 23.5584 32.3253 24.3628 30.7233C24.5478 30.2717 24.9863 29.954 25.4984 29.954C26.1773 29.954 26.7276 30.5126 26.7276 31.2016C26.7276 31.4071 26.6788 31.6011 26.592 31.7718L26.593 31.7721H26.5931L26.5256 31.9056C25.6668 33.6386 25.3229 35.5688 25.7088 37.6904C26.0043 39.3157 26.7257 41.0802 27.961 42.9885L30.1903 39.7638L29.2053 34.2334C29.0857 33.5558 29.5297 32.908 30.1973 32.7865C30.8649 32.6651 31.5031 33.116 31.6229 33.7937L32.1751 36.893L34.372 33.7153L33.3851 28.1748C33.2654 27.4973 33.7095 26.8494 34.3773 26.728C35.0448 26.6068 35.6831 27.0575 35.8027 27.7351L36.3568 30.8445L39.3784 26.4735C39.7697 25.9092 40.5373 25.7735 41.0933 26.1704C41.6493 26.5671 41.7829 27.3463 41.3916 27.9103L38.3949 32.2454L41.4156 31.7185C42.0861 31.6023 42.7222 32.0597 42.8365 32.7401C42.9507 33.4201 42.5003 34.066 41.8298 34.182L36.4014 35.1288L34.2052 38.3053L37.236 37.7768C37.906 37.6609 38.5426 38.1182 38.6569 38.7984C38.7711 39.4786 38.3202 40.1246 37.6503 40.2405L32.2114 41.1893L29.9679 44.4343C32.173 44.967 34.0687 45.0522 35.6908 44.7758C37.785 44.4186 39.4523 43.4316 40.7615 42.0216C42.1628 40.5121 43.1975 38.4975 43.9332 36.2164C44.4889 34.4934 44.8717 32.6351 45.1114 30.7299H45.1126C45.1126 30.0407 45.6667 29.4822 46.3506 29.4822C47.0339 29.4822 47.588 30.0407 47.588 30.7299C47.588 30.8368 47.5746 30.9407 47.5495 31.0397C46.3625 40.5272 41.8536 49.0375 30.8652 47.1671L31.9654 48.7592C32.3567 49.3232 32.2227 50.1025 31.667 50.4993C31.1113 50.8963 30.3435 50.7605 29.9525 50.1965L27.9686 47.3264L25.9846 50.1965C25.5936 50.7605 24.8258 50.8963 24.2701 50.4993C23.7144 50.1025 23.5804 49.3232 23.9714 48.7592L25.0761 47.1614C14.0905 49.032 9.58043 40.5305 8.39065 31.0476C8.36441 30.9461 8.3501 30.8397 8.3501 30.7299C8.3501 30.0407 8.90415 29.4822 9.58771 29.4822ZM28.5541 46.6445C28.7288 46.6929 28.9017 46.739 29.0734 46.7831C28.9017 46.7393 28.7288 46.6931 28.5541 46.6445ZM29.1943 46.8135C29.3368 46.849 29.4786 46.8831 29.6193 46.9154C29.4786 46.8831 29.3368 46.849 29.1943 46.8135ZM29.8548 46.9685C29.9576 46.9912 30.0594 47.0129 30.161 47.0335C30.0594 47.0129 29.9576 46.9912 29.8548 46.9685Z" fill="#BDD530"/>
<path fill-rule="evenodd" clip-rule="evenodd" d="M27.9686 6.96411C29.9189 6.96411 31.6851 7.76648 32.9633 9.06406C34.2416 10.3614 35.0324 12.1537 35.0324 14.1333C35.0324 15.194 34.8053 16.2011 34.3978 17.107C33.4196 17.1456 32.4323 17.1747 31.4379 17.1956C32.1406 16.3759 32.5664 15.3049 32.5664 14.1333C32.5664 12.8448 32.0518 11.6779 31.2197 10.8335C30.3879 9.98922 29.2381 9.46688 27.9686 9.46688C26.6988 9.46688 25.549 9.98922 24.7173 10.8335C23.8854 11.6779 23.3705 12.8448 23.3705 14.1333C23.3705 15.3049 23.7963 16.3759 24.4991 17.1956C23.5047 17.1747 22.5173 17.1456 21.5394 17.107C21.1321 16.2014 20.9048 15.194 20.9048 14.1333C20.9048 12.1537 21.6954 10.3614 22.9736 9.06406C24.2518 7.76648 26.0178 6.96411 27.9686 6.96411Z" fill="#BDD530"/>
<path fill-rule="evenodd" clip-rule="evenodd" d="M12.1397 36.6247C12.8652 38.7378 13.858 40.6027 15.1754 42.0214C16.4846 43.4316 18.1522 44.4184 20.2461 44.7756C21.8648 45.0515 23.756 44.9672 25.9548 44.4377C25.8858 44.3316 25.8185 44.2258 25.752 44.1204L23.7253 41.189L18.2867 40.2405C17.6165 40.1246 17.1659 39.4787 17.2801 38.7985C17.3944 38.1183 18.0308 37.6609 18.701 37.7768L21.7318 38.3056L20.1549 36.0248C21.1221 35.9781 22.0991 35.9407 23.0837 35.9115L23.0938 35.9263L23.094 35.9112C23.9082 35.8872 24.7281 35.8688 25.5527 35.8565C25.5447 36.4509 25.5946 37.0623 25.7089 37.6904C26.0045 39.3158 26.7258 41.0803 27.9611 42.9886L30.1904 39.7639L29.4925 35.8457C30.3321 35.8533 31.167 35.8672 31.996 35.8874L32.1752 36.8931L32.8538 35.9115C33.838 35.9407 34.8147 35.9781 35.782 36.0248L34.2053 38.3054L37.2361 37.7768C37.9061 37.6609 38.5427 38.1183 38.657 38.7985C38.7712 39.4787 38.3204 40.1246 37.6504 40.2405L32.2116 41.1893L29.9681 44.4344C32.1731 44.9671 34.0688 45.0522 35.691 44.7758C37.7851 44.4187 39.4525 43.4316 40.7617 42.0217C42.0786 40.6029 43.0719 38.738 43.7975 36.6247C44.6415 36.7111 45.4757 36.804 46.2998 36.9036C44.1357 43.6937 39.5022 48.6373 30.8653 47.1671L31.9655 48.7593C32.3568 49.3233 32.2228 50.1025 31.6671 50.4994C31.1114 50.8963 30.3436 50.7606 29.9526 50.1966L27.9687 47.3264L25.9848 50.1966C25.5937 50.7606 24.8259 50.8963 24.2702 50.4994C23.7145 50.1025 23.5805 49.3233 23.9716 48.7593L25.0763 47.1614C16.4394 48.6321 11.8056 43.6913 9.64062 36.9033C10.4636 36.8038 11.2968 36.711 12.1397 36.6247ZM28.5542 46.6445C28.7289 46.6929 28.9018 46.7391 29.0735 46.7831C28.9018 46.7393 28.7289 46.6932 28.5542 46.6445ZM29.1944 46.8136C29.337 46.849 29.4787 46.8831 29.6194 46.9155C29.4787 46.8831 29.337 46.849 29.1944 46.8136ZM29.8549 46.9686C29.9577 46.9912 30.0595 47.0129 30.1611 47.0336C30.0595 47.0129 29.9577 46.9912 29.8549 46.9686Z" fill="#94C93D"/>
</svg>
