<svg width="132" height="119" viewBox="0 0 132 119" fill="none" xmlns="http://www.w3.org/2000/svg">
<path opacity="0.046773" fill-rule="evenodd" clip-rule="evenodd" d="M53 119H0.0324363V62.2804C-0.216239 54.1246 0.964951 46.4632 3.57604 39.296C6.18713 32.1287 9.85504 25.8266 14.5799 20.3894C19.3047 14.9522 24.962 10.4419 31.5519 6.85826C38.1418 3.27464 45.2911 0.988582 53 0V24.4673C43.5503 27.6802 37.0849 32.4377 33.6034 38.7399C30.122 45.0421 28.3813 52.7653 28.3813 61.9097H53V119ZM132 119H79.0324V62.2804C78.7838 54.1246 79.965 46.4632 82.576 39.296C85.1871 32.1287 88.855 25.8266 93.5799 20.3894C98.3047 14.9522 103.962 10.4419 110.552 6.85826C117.142 3.27464 124.291 0.988582 132 0V24.4673C122.55 27.6802 116.085 32.4377 112.603 38.7399C109.122 45.0421 107.381 52.7653 107.381 61.9097H132V119Z" fill="#333333"/>
</svg>
