<svg width="665" height="673" viewBox="0 0 665 673" fill="none" xmlns="http://www.w3.org/2000/svg">
<g opacity="0.09551">
<path fill-rule="evenodd" clip-rule="evenodd" d="M360.631 0.921048C530.952 15.3421 664.758 160.159 664.758 336.706C664.758 514.171 529.566 659.594 357.982 672.724V672.546C349.834 672.543 343.232 665.844 343.232 657.574C343.232 649.303 349.834 642.604 357.982 642.601V642.598C431.42 636.419 497.408 603.631 546.56 553.758C601.301 498.212 635.165 421.472 635.165 336.706C635.165 251.938 601.301 175.197 546.56 119.651C497.408 69.7793 431.42 36.9914 357.985 30.8144V30.6229C349.837 30.6229 343.232 23.9208 343.232 15.6536C343.232 7.38328 349.837 0.680176 357.985 0.680176C358.888 0.680176 359.772 0.760802 360.631 0.921048ZM307.324 0.680176C315.472 0.680176 322.076 7.38328 322.076 15.6536C322.076 23.9208 315.472 30.6229 307.324 30.6229V30.8144C233.889 36.9914 167.897 69.7762 118.746 119.651C64.005 175.197 30.144 251.938 30.144 336.706C30.144 421.472 64.005 498.212 118.746 553.758C167.895 603.631 233.889 636.419 307.321 642.598V642.601H307.324C315.472 642.601 322.076 649.303 322.076 657.574C322.076 665.844 315.472 672.546 307.324 672.546H307.321V672.724C135.743 659.594 0.547852 514.171 0.547852 336.706C0.547852 160.156 134.36 15.3391 304.677 0.921048C305.536 0.760802 306.42 0.680176 307.324 0.680176Z" fill="white"/>
<path fill-rule="evenodd" clip-rule="evenodd" d="M360.632 0.921048C480.685 11.085 582.59 86.0407 632.288 191.224C622.138 192.792 611.85 194.287 601.425 195.701C587.038 167.518 568.473 141.886 546.56 119.651C497.409 69.7793 431.42 36.9914 357.985 30.8144V30.6229C349.837 30.6229 343.232 23.9208 343.232 15.6536C343.232 7.38328 349.837 0.680176 357.985 0.680176C358.889 0.680176 359.773 0.760802 360.632 0.921048ZM63.884 195.701C53.4591 194.287 43.1683 192.795 33.0186 191.224C82.7165 86.0376 184.624 11.082 304.677 0.921048C305.537 0.760802 306.421 0.680176 307.324 0.680176C315.472 0.680176 322.077 7.38328 322.077 15.6536C322.077 23.9208 315.472 30.6229 307.324 30.6229V30.8144C233.889 36.9914 167.897 69.7762 118.746 119.651C96.8332 141.886 78.2738 167.518 63.884 195.701Z" fill="white"/>
<path fill-rule="evenodd" clip-rule="evenodd" d="M116.978 202.384L117.262 200.933C120.334 201.786 123.433 202.685 126.558 203.624C123.354 203.219 120.159 202.807 116.978 202.384ZM538.767 203.62C541.895 202.681 545.003 201.778 548.084 200.926L549.218 202.27C545.75 202.735 542.261 203.179 538.767 203.62Z" fill="white"/>
<path fill-rule="evenodd" clip-rule="evenodd" d="M551.695 200.48C553.297 200.48 554.841 200.743 556.285 201.22C552.307 201.654 548.311 202.08 544.303 202.492C546.476 201.212 549.002 200.48 551.695 200.48Z" fill="white"/>
<path fill-rule="evenodd" clip-rule="evenodd" d="M113.664 200.48C116.361 200.48 118.889 201.215 121.063 202.497C117.045 202.083 113.041 201.66 109.061 201.223C110.511 200.74 112.056 200.48 113.664 200.48Z" fill="white"/>
<path fill-rule="evenodd" clip-rule="evenodd" d="M632.288 482.183C582.229 588.153 479.19 663.448 357.982 672.724V672.546C349.834 672.543 343.232 665.844 343.232 657.574C343.232 649.303 349.834 642.604 357.982 642.601V642.598C431.42 636.419 497.409 603.631 546.56 553.758C568.473 531.523 587.035 505.889 601.425 477.706C611.848 479.12 622.138 480.615 632.288 482.183ZM33.0186 482.183C43.1653 480.615 53.4561 479.12 63.881 477.706C78.2679 505.889 96.8332 531.523 118.746 553.758C167.895 603.631 233.889 636.419 307.321 642.598V642.601H307.324C315.472 642.601 322.077 649.303 322.077 657.574C322.077 665.844 315.472 672.546 307.324 672.546H307.321V672.724C186.116 663.448 83.0801 588.153 33.0186 482.183Z" fill="white"/>
<path fill-rule="evenodd" clip-rule="evenodd" d="M332.654 74.1301C356.061 74.1301 377.259 83.758 392.6 99.328C407.942 114.895 417.433 136.401 417.433 160.156C417.433 183.907 407.942 205.417 392.6 220.984C377.259 236.551 356.061 246.181 332.654 246.181C309.241 246.181 288.046 236.551 272.705 220.984C257.364 205.417 247.875 183.907 247.875 160.156C247.875 136.401 257.364 114.895 272.705 99.328C288.046 83.758 309.241 74.1301 332.654 74.1301ZM371.673 120.56C361.69 110.429 347.891 104.162 332.654 104.162C317.414 104.162 303.615 110.429 293.632 120.56C283.648 130.693 277.469 144.695 277.469 160.156C277.469 175.617 283.648 189.619 293.632 199.752C303.615 209.882 317.414 216.15 332.654 216.15C347.891 216.15 361.69 209.882 371.673 199.752C381.66 189.619 387.837 175.617 387.837 160.156C387.837 144.695 381.66 130.693 371.673 120.56Z" fill="white"/>
<path fill-rule="evenodd" clip-rule="evenodd" d="M113.664 200.48C114.906 200.48 116.111 200.637 117.262 200.932L117.352 200.952H117.355C189.523 216.804 276.393 251.278 332.64 303.412C388.929 251.247 475.884 216.765 548.084 200.926L548.089 200.932C549.243 200.637 550.451 200.48 551.695 200.48C559.601 200.48 566.048 206.782 566.432 214.708C570.247 243.268 572.248 274.818 571.615 306.889C571.688 307.478 571.721 308.084 571.721 308.692C571.721 316.963 565.117 323.665 556.969 323.665C548.818 323.665 542.213 316.963 542.213 308.692C542.213 308.426 542.222 308.161 542.236 307.895H542.104C542.672 282.463 541.47 257.289 538.973 233.777C480.572 248.384 414.849 275.067 366.91 313.246C358.644 319.828 350.952 326.721 343.984 333.921C341.292 336.838 337.464 338.66 333.214 338.66C329.014 338.66 325.23 336.883 322.541 334.026H322.44C317 329.236 312.094 324.945 312.094 324.945L312.091 324.942C307.737 320.943 303.165 317.042 298.399 313.246C250.457 275.07 184.736 248.384 126.331 233.777C123.83 257.289 122.631 282.463 123.197 307.895H123.07C123.084 308.161 123.093 308.426 123.093 308.692C123.093 316.963 116.488 323.665 108.34 323.665C100.189 323.665 93.5842 316.963 93.5842 308.692C93.5842 308.073 93.6239 307.455 93.6934 306.855C93.0607 274.421 95.1098 242.522 99.0092 213.707C99.8623 206.26 106.096 200.48 113.664 200.48Z" fill="white"/>
<path fill-rule="evenodd" clip-rule="evenodd" d="M112.05 344.331C120.254 344.331 126.905 351.033 126.905 359.304H126.908C129.782 382.164 134.377 404.46 141.044 425.134C149.876 452.509 162.29 476.681 179.112 494.793C194.825 511.714 214.839 523.555 239.97 527.841C259.396 531.152 282.094 530.141 308.484 523.787C307.656 522.513 306.849 521.244 306.051 519.98L281.726 484.805L216.453 473.424C208.409 472.033 203.001 464.282 204.372 456.12C205.743 447.958 213.381 442.47 221.425 443.861L257.8 450.206L231.439 412.087L166.29 400.726C158.243 399.332 152.838 391.584 154.209 383.421C155.581 375.26 163.218 369.769 171.263 371.163L207.516 377.488L171.55 325.471C166.854 318.702 168.458 309.353 175.131 304.593C181.804 299.831 191.016 301.458 195.712 308.23L231.977 360.678L238.624 323.365C240.063 315.234 247.724 309.826 255.736 311.284C263.747 312.738 269.079 320.514 267.643 328.641L255.796 395.12L274.147 421.655C274.223 399.265 279.725 378.448 289.379 359.224C291.6 353.805 296.862 349.993 303.008 349.993C311.156 349.993 317.761 356.696 317.761 364.964C317.761 367.429 317.175 369.757 316.133 371.806L316.145 371.809H316.147L315.337 373.411C305.029 394.206 300.902 417.367 305.534 442.824C309.08 462.328 317.738 483.5 332.564 506.398L359.32 467.704L347.497 401.343C346.062 393.212 351.392 385.439 359.404 383.982C367.416 382.524 375.075 387.935 376.513 396.067L383.141 433.257L409.507 395.126L397.663 328.644C396.227 320.514 401.557 312.74 409.572 311.284C417.582 309.829 425.243 315.237 426.679 323.367L433.329 360.678L469.594 308.23C474.29 301.458 483.503 299.831 490.176 304.593C496.848 309.353 498.453 318.702 493.757 325.471L457.79 377.488L494.044 371.166C502.091 369.772 509.726 375.26 511.097 383.424C512.468 391.584 507.063 399.334 499.016 400.726L433.864 412.087L407.506 450.203L443.881 443.861C451.922 442.47 459.563 447.958 460.934 456.12C462.305 464.282 456.894 472.033 448.853 473.424L383.577 484.808L356.651 523.747C383.115 530.139 405.867 531.161 425.336 527.844C450.47 523.558 470.481 511.714 486.194 494.796C503.011 476.683 515.43 452.509 524.259 425.137C530.929 404.463 535.524 382.164 538.401 359.304H538.415C538.415 351.033 545.066 344.331 553.273 344.331C561.474 344.331 568.124 351.033 568.124 359.304C568.124 360.587 567.963 361.832 567.662 363.021C553.416 476.864 499.301 578.981 367.419 556.538L380.624 575.642C385.32 582.41 383.712 591.761 377.043 596.523C370.373 601.286 361.158 599.657 356.465 592.889L332.655 558.45L308.844 592.889C304.151 599.657 294.936 601.286 288.266 596.523C281.597 591.761 279.989 582.41 284.682 575.642L297.94 556.469C166.093 578.916 111.963 476.904 97.6835 363.115C97.3686 361.898 97.1968 360.621 97.1968 359.304C97.1968 351.033 103.846 344.331 112.05 344.331ZM339.682 550.267C341.779 550.848 343.854 551.402 345.915 551.93C343.854 551.405 341.779 550.851 339.682 550.267ZM347.365 552.296C349.077 552.721 350.778 553.13 352.466 553.518C350.778 553.13 349.077 552.721 347.365 552.296ZM355.293 554.155C356.527 554.427 357.748 554.687 358.968 554.935C357.748 554.687 356.527 554.427 355.293 554.155Z" fill="white"/>
<path fill-rule="evenodd" clip-rule="evenodd" d="M332.654 74.1301C356.061 74.1301 377.259 83.758 392.6 99.328C407.942 114.895 417.433 136.401 417.433 160.156C417.433 172.883 414.707 184.968 409.817 195.838C398.077 196.301 386.227 196.649 374.292 196.9C382.727 187.065 387.837 174.214 387.837 160.156C387.837 144.695 381.66 130.693 371.673 120.56C361.69 110.429 347.891 104.162 332.654 104.162C317.414 104.162 303.615 110.429 293.632 120.56C283.648 130.693 277.469 144.695 277.469 160.156C277.469 174.214 282.579 187.065 291.014 196.9C279.08 196.649 267.228 196.301 255.492 195.838C250.604 184.971 247.875 172.883 247.875 160.156C247.875 136.401 257.364 114.895 272.705 99.328C288.046 83.758 309.241 74.1301 332.654 74.1301Z" fill="white"/>
<path fill-rule="evenodd" clip-rule="evenodd" d="M142.677 430.036C151.385 455.391 163.3 477.769 179.112 494.793C194.825 511.714 214.839 523.555 239.97 527.841C259.396 531.152 282.094 530.14 308.484 523.787C307.656 522.513 306.849 521.244 306.051 519.979L281.726 484.805L216.453 473.424C208.409 472.033 203.001 464.282 204.372 456.12C205.743 447.958 213.381 442.47 221.425 443.861L257.8 450.206L238.875 422.837C250.483 422.277 262.209 421.829 274.025 421.478L274.147 421.655L274.15 421.475C283.922 421.187 293.762 420.966 303.658 420.818C303.563 427.951 304.162 435.287 305.534 442.824C309.08 462.327 317.738 483.5 332.564 506.398L359.32 467.704L350.944 420.689C361.02 420.78 371.041 420.947 380.99 421.189L383.141 433.256L391.286 421.478C403.097 421.829 414.82 422.277 426.429 422.837L407.506 450.203L443.881 443.861C451.922 442.47 459.563 447.958 460.934 456.12C462.305 464.282 456.894 472.033 448.853 473.424L383.577 484.808L356.651 523.747C383.115 530.138 405.867 531.16 425.336 527.844C450.47 523.558 470.481 511.714 486.194 494.796C502 477.771 513.921 455.394 522.63 430.036C532.759 431.073 542.771 432.188 552.662 433.382C526.689 514.86 471.078 574.179 367.419 556.538L380.624 575.642C385.32 582.41 383.712 591.76 377.043 596.522C370.373 601.285 361.158 599.657 356.465 592.889L332.655 558.449L308.844 592.889C304.151 599.657 294.936 601.285 288.266 596.522C281.597 591.76 279.989 582.41 284.682 575.642L297.94 556.469C194.281 574.116 138.668 514.83 112.684 433.379C122.561 432.185 132.561 431.071 142.677 430.036ZM339.682 550.267C341.779 550.847 343.854 551.402 345.915 551.93C343.854 551.405 341.779 550.85 339.682 550.267ZM347.365 552.296C349.076 552.721 350.778 553.13 352.466 553.518C350.778 553.13 349.076 552.721 347.365 552.296ZM355.293 554.155C356.527 554.427 357.748 554.687 358.968 554.935C357.748 554.687 356.527 554.427 355.293 554.155Z" fill="white"/>
</g>
</svg>
